<?xml version="1.0" encoding="UTF-8" standalone="no"?>
<svg
   xmlns:dc="http://purl.org/dc/elements/1.1/"
   xmlns:cc="http://creativecommons.org/ns#"
   xmlns:rdf="http://www.w3.org/1999/02/22-rdf-syntax-ns#"
   xmlns:svg="http://www.w3.org/2000/svg"
   xmlns="http://www.w3.org/2000/svg"
   viewBox="0 0 2416.4133 4295.5068"
   height="4295.5068"
   width="2416.4133"
   xml:space="preserve"
   id="svg2"
   version="1.1"><metadata
     id="metadata8"><rdf:RDF><cc:Work
         rdf:about=""><dc:format>image/svg+xml</dc:format><dc:type
           rdf:resource="http://purl.org/dc/dcmitype/StillImage" /></cc:Work></rdf:RDF></metadata><defs
     id="defs6" /><g
     transform="matrix(1.3333333,0,0,-1.3333333,0,4295.5067)"
     id="g10"><g
       transform="scale(0.1)"
       id="g12"><g
         transform="scale(1.09085)"
         id="g14"><path
           id="path16"
           style="fill:#787878;fill-opacity:1;fill-rule:nonzero;stroke:none"
           d="m 16300,14563.1 h -511.3 v 978.1 h 511.3 v -978.1" /></g><path
         id="path18"
         style="fill:#5e79a8;fill-opacity:1;fill-rule:nonzero;stroke:none"
         d="M 12162.7,6056.2 H 5960.41 v 6898.6 H 12162.7 V 6056.2" /><g
         transform="scale(1.16353)"
         id="g20"><path
           id="path22"
           style="fill:#50668e;fill-opacity:1;fill-rule:nonzero;stroke:none"
           d="M 10453.3,10371 H 5122.71 v 5929 h 5330.59 v -5929" /></g><path
         id="path24"
         style="fill:#5e79a8;fill-opacity:1;fill-rule:nonzero;stroke:none"
         d="M 15755.3,1948.6 H 2367.84 V 8847.2 H 15755.3 V 1948.6" /><path
         id="path26"
         style="fill:#50668e;fill-opacity:1;fill-rule:nonzero;stroke:none"
         d="m 2663.82,2413.4 831.02,1747.4 H 5960.41 V 15281 H 2296.17 V 2413.4 h 367.65" /><path
         id="path28"
         style="fill:#50668e;fill-opacity:1;fill-rule:nonzero;stroke:none"
         d="m 15459.3,2413.4 -831,1747.4 H 12162.7 V 15281 h 3664.2 V 2413.4 h -367.6" /><g
         transform="scale(1.62585)"
         id="g30"><path
           id="path32"
           style="fill:#6481b5;fill-opacity:1;fill-rule:nonzero;stroke:none"
           d="M 8981.94,16300 H 2164.92 V 14647.7 H 8981.94 V 16300" /></g><g
         transform="scale(1.46104)"
         id="g34"><path
           id="path36"
           style="fill:#50668e;fill-opacity:1;fill-rule:nonzero;stroke:none"
           d="m 9995.12,12748.8 h -7586 V 16300 h 7586 v -3551.2" /></g><g
         transform="scale(1.14273)"
         id="g38"><path
           id="path40"
           style="fill:#5e79a8;fill-opacity:1;fill-rule:nonzero;stroke:none"
           d="M 12779.3,16300 H 7929.74 3080.2 l -490.31,-2927.6 h 5339.85 5339.86 l -490.3,2927.6" /></g><g
         transform="scale(1.97644)"
         id="g42"><path
           id="path44"
           style="fill:#50668e;fill-opacity:1;fill-rule:nonzero;stroke:none"
           d="m 5562.98,15124.6 v 639.9 h -321.59 v 535.7 h -656.61 -656.62 v -535.7 h -321.57 v -639.9 l -288.96,-1773.5 489.58,-57.5 h 1555.15 l 667.16,195.8 -466.54,1635.2" /></g><g
         transform="scale(1.97644)"
         id="g46"><path
           id="path48"
           style="fill:#394966;fill-opacity:1;fill-rule:nonzero;stroke:none"
           d="m 4227.65,13293.6 h -69.12 v 3006.6 h 69.12 v -3006.6" /></g><g
         transform="scale(1.97644)"
         id="g50"><path
           id="path52"
           style="fill:#394966;fill-opacity:1;fill-rule:nonzero;stroke:none"
           d="m 5011.03,13293.6 h -69.12 v 3006.6 h 69.12 v -3006.6" /></g><g
         transform="scale(1.76694)"
         id="g54"><path
           id="path56"
           style="fill:#50668e;fill-opacity:1;fill-rule:nonzero;stroke:none"
           d="m 8288.16,16300 h -380.99 v -1526.9 h 380.99 642.36 c 0,0 0,773.1 0,1063 0,289.9 -65.14,463.9 -642.36,463.9" /></g><g
         transform="scale(1.76694)"
         id="g58"><path
           id="path60"
           style="fill:#394966;fill-opacity:1;fill-rule:nonzero;stroke:none"
           d="m 8369.66,16199.4 c 0,34.3 -0.85,67.4 -2.71,99.3 -25.25,0.8 -51.28,1.3 -78.79,1.3 h -380.99 v -1526.9 h 380.99 81.5 v 1426.3" /></g><g
         transform="scale(1.82351)"
         id="g62"><path
           id="path64"
           style="fill:#5e79a8;fill-opacity:1;fill-rule:nonzero;stroke:none"
           d="m 7189.86,16300 h -534.73 v -1985.2 h 534.73 835.21 c 0,0 0,1005.2 0,1382.1 0,376.9 -84.73,603.1 -835.21,603.1" /></g><g
         transform="scale(1.82351)"
         id="g66"><path
           id="path68"
           style="fill:#394966;fill-opacity:1;fill-rule:nonzero;stroke:none"
           d="m 7343.25,15876.5 c 0,155.2 -43.98,300.1 -120.1,423.3 -10.91,0.1 -21.99,0.2 -33.29,0.2 h -534.73 v -1985.2 h 534.73 153.39 v 1561.7" /></g><g
         transform="scale(1.85703)"
         id="g70"><path
           id="path72"
           style="fill:#6481b5;fill-opacity:1;fill-rule:nonzero;stroke:none"
           d="m 6417.22,16300 v 0 c 392.13,0 710.06,-317.9 710.06,-710.1 V 14056.4 H 5707.16 v 1533.5 c 0,392.2 317.88,710.1 710.06,710.1" /></g><g
         transform="scale(1.82351)"
         id="g74"><path
           id="path76"
           style="fill:#cab69e;fill-opacity:1;fill-rule:nonzero;stroke:none"
           d="m 6029.52,15794.3 c 0,279.3 226.38,505.7 505.67,505.7 279.24,0 505.68,-226.4 505.68,-505.7 0,-279.2 -226.44,-505.6 -505.68,-505.6 -279.29,0 -505.67,226.4 -505.67,505.6" /></g><g
         transform="scale(1.79418)"
         id="g78"><path
           id="path80"
           style="fill:#dd1f26;fill-opacity:1;fill-rule:nonzero;stroke:none"
           d="m 6889.5,16052.6 c 0,136.6 -110.8,247.4 -247.46,247.4 -136.67,0 -247.47,-110.8 -247.47,-247.4 0,-136.7 110.8,-247.5 247.47,-247.5 136.66,0 247.46,110.8 247.46,247.5" /></g><g
         transform="scale(1.76694)"
         id="g82"><path
           id="path84"
           style="fill:#50668e;fill-opacity:1;fill-rule:nonzero;stroke:none"
           d="m 1968.61,16300 h 381.01 v -1526.9 h -381.01 -642.37 c 0,0 0,773.1 0,1063 0,289.9 65.15,463.9 642.37,463.9" /></g><g
         transform="scale(1.76694)"
         id="g86"><path
           id="path88"
           style="fill:#394966;fill-opacity:1;fill-rule:nonzero;stroke:none"
           d="m 1887.08,16199.4 c 0,34.3 0.87,67.4 2.75,99.3 25.24,0.8 51.25,1.3 78.78,1.3 h 381.01 v -1526.9 h -381.01 -81.53 v 1426.3" /></g><g
         transform="scale(1.82351)"
         id="g90"><path
           id="path92"
           style="fill:#5e79a8;fill-opacity:1;fill-rule:nonzero;stroke:none"
           d="m 2748.69,16300 h 534.75 v -1985.2 h -534.75 -835.17 c 0,0 0,1005.2 0,1382.1 0,376.9 84.71,603.1 835.17,603.1" /></g><g
         transform="scale(1.82351)"
         id="g94"><path
           id="path96"
           style="fill:#394966;fill-opacity:1;fill-rule:nonzero;stroke:none"
           d="m 2595.3,15876.5 c 0,155.2 44.03,300.1 120.1,423.3 10.95,0.1 22.03,0.2 33.28,0.2 h 534.76 V 14314.8 H 2748.68 2595.3 v 1561.7" /></g><g
         transform="scale(1.85703)"
         id="g98"><path
           id="path100"
           style="fill:#6481b5;fill-opacity:1;fill-rule:nonzero;stroke:none"
           d="m 3341.95,16300 v 0 c -392.15,0 -710.06,-317.9 -710.06,-710.1 v -1533.5 h 1420.12 v 1533.5 c 0,392.2 -317.9,710.1 -710.06,710.1" /></g><g
         transform="scale(1.82351)"
         id="g102"><path
           id="path104"
           style="fill:#cab69e;fill-opacity:1;fill-rule:nonzero;stroke:none"
           d="m 3909.06,15794.3 c 0,279.3 -226.4,505.7 -505.67,505.7 -279.28,0 -505.67,-226.4 -505.67,-505.7 0,-279.2 226.39,-505.6 505.67,-505.6 279.27,0 505.67,226.4 505.67,505.6" /></g><g
         transform="scale(1.79418)"
         id="g106"><path
           id="path108"
           style="fill:#dd1f26;fill-opacity:1;fill-rule:nonzero;stroke:none"
           d="m 3211.58,16052.6 c 0,136.6 110.79,247.4 247.45,247.4 136.67,0 247.45,-110.8 247.45,-247.4 0,-136.7 -110.78,-247.5 -247.45,-247.5 -136.66,0 -247.45,110.8 -247.45,247.5" /></g><g
         transform="scale(1.64961)"
         id="g110"><path
           id="path112"
           style="fill:#786658;fill-opacity:1;fill-rule:nonzero;stroke:none"
           d="m 1776.36,9157.56 357.38,2133.94 v 3145.2 L 2383.64,16300 1124.85,14436.7 835.015,12159.4 1007.53,9799.34 1776.36,9157.56" /></g><g
         transform="scale(1.64961)"
         id="g114"><path
           id="path116"
           style="fill:#786658;fill-opacity:1;fill-rule:nonzero;stroke:none"
           d="m 9209.93,9157.56 -357.35,2133.94 v 3145.2 l -249.94,1863.3 991.69,-931.6 246.42,-5527.65 -630.82,-683.19" /></g><path
         id="path118"
         style="fill:#ad9b87;fill-opacity:1;fill-rule:nonzero;stroke:none"
         d="M 2663.82,9881.2 H 660.266 v -3825 H 2663.82 v 3825" /><path
         id="path120"
         style="fill:#cab69e;fill-opacity:1;fill-rule:nonzero;stroke:none"
         d="M 2663.82,15106.4 H 660.266 V 9881.2 H 2663.82 v 5225.2" /><path
         id="path122"
         style="fill:#bdaa94;fill-opacity:1;fill-rule:nonzero;stroke:none"
         d="M 2663.82,15106.4 H 660.266 v -273.2 H 2663.82 v 273.2" /><path
         id="path124"
         style="fill:#dd1f26;fill-opacity:1;fill-rule:nonzero;stroke:none"
         d="M 2663.82,14252.5 H 660.266 v -204.9 H 2663.82 v 204.9" /><path
         id="path126"
         style="fill:#dd1f26;fill-opacity:1;fill-rule:nonzero;stroke:none"
         d="M 2663.82,13068.6 H 660.266 v -204.9 H 2663.82 v 204.9" /><path
         id="path128"
         style="fill:#dd1f26;fill-opacity:1;fill-rule:nonzero;stroke:none"
         d="M 2663.82,11884.7 H 660.266 v -204.9 H 2663.82 v 204.9" /><path
         id="path130"
         style="fill:#dd1f26;fill-opacity:1;fill-rule:nonzero;stroke:none"
         d="M 2663.82,10700.8 H 660.266 v -204.9 H 2663.82 v 204.9" /><path
         id="path132"
         style="fill:#dd1f26;fill-opacity:1;fill-rule:nonzero;stroke:none"
         d="m 1764.5,6056.2 v 3825 h -204.91 v -3825 h 204.91" /><g
         transform="scale(1.64961)"
         id="g134"><path
           id="path136"
           style="fill:#cab69e;fill-opacity:1;fill-rule:nonzero;stroke:none"
           d="m 1776.36,9157.56 c 0,0 0,3312.44 0,4057.74 0,745.3 200.12,2422.2 607.28,3084.7 H 1007.53 c -407.149,-662.5 -607.274,-2339.4 -607.274,-3084.7 0,-745.3 0,-4057.74 0,-4057.74 H 1776.36" /></g><path
         id="path138"
         style="fill:#ad9b87;fill-opacity:1;fill-rule:nonzero;stroke:none"
         d="m 6705.09,2413.4 v 1405.9 h -563.5 l -181.18,341.5 H 3494.84 L 2663.82,2413.4 h 4041.27" /><path
         id="path140"
         style="fill:#dd1f26;fill-opacity:1;fill-rule:nonzero;stroke:none"
         d="m 4925.86,12271.8 c 0,198 -160.55,358.6 -358.6,358.6 -198.04,0 -358.59,-160.6 -358.59,-358.6 0,-198.1 160.55,-358.6 358.59,-358.6 198.05,0 358.6,160.5 358.6,358.6" /><path
         id="path142"
         style="fill:#dd1f26;fill-opacity:1;fill-rule:nonzero;stroke:none"
         d="m 4878.25,5563.8 c 74.68,77.6 121.15,182.7 121.15,299 0,139.4 -67.19,262.1 -169.74,341.1 77.29,71.1 126.53,172.2 126.53,285.4 0,162 -99.13,300.7 -239.93,359.1 116.01,55.8 196.72,173.4 196.72,310.8 0,145.8 -90.53,269.9 -218.24,320.7 103.11,48.2 175.02,152.1 175.02,273.4 0,125.1 -75.89,232.3 -184.07,278.4 83.31,43.1 140.86,129.1 140.86,229.4 0,143.2 -116.09,259.3 -259.29,259.3 -143.19,0 -259.28,-116.1 -259.28,-259.3 0,-100.3 57.55,-186.3 140.86,-229.4 -108.19,-46.1 -184.07,-153.3 -184.07,-278.4 0,-121.3 71.9,-225.2 175.02,-273.4 -127.71,-50.8 -218.24,-174.9 -218.24,-320.7 0,-137.4 80.7,-255 196.72,-310.8 -140.81,-58.4 -239.93,-197.1 -239.93,-359.1 0,-113.2 49.24,-214.3 126.53,-285.4 -102.55,-79 -169.74,-201.7 -169.74,-341.1 0,-116.3 46.47,-221.4 121.15,-299 -106.21,-89.2 -175.17,-221.3 -175.17,-370.9 0,-268.4 217.66,-486.1 486.15,-486.1 268.5,0 486.16,217.7 486.16,486.1 0,149.6 -68.96,281.7 -175.17,370.9" /><g
         transform="scale(1.08391)"
         id="g144"><path
           id="path146"
           style="fill:#cab69e;fill-opacity:1;fill-rule:nonzero;stroke:none"
           d="M 8549.12,1176.3 H 16300 V 5587.37 H 14262.6 V 2226.57 H 8507.11 8213.04 2457.61 v 3360.8 H 420.105 V 1176.3 h 7750.925 378.09" /></g><g
         transform="scale(1.07134)"
         id="g148"><path
           id="path150"
           style="fill:#ad9b87;fill-opacity:1;fill-rule:nonzero;stroke:none"
           d="M 14429.9,9223.24 H 16300 V 5652.93 h -1870.1 v 3570.31" /></g><g
         transform="scale(1.07134)"
         id="g152"><path
           id="path154"
           style="fill:#cab69e;fill-opacity:1;fill-rule:nonzero;stroke:none"
           d="M 14429.9,14100.5 H 16300 V 9223.24 h -1870.1 v 4877.26" /></g><g
         transform="scale(1.64961)"
         id="g156"><path
           id="path158"
           style="fill:#cab69e;fill-opacity:1;fill-rule:nonzero;stroke:none"
           d="m 9209.93,9157.56 c 0,0 0,3312.44 0,4057.74 0,745.3 -200.11,2422.2 -607.29,3084.7 h 1376.14 c 407.12,-662.5 607.22,-2339.4 607.22,-3084.7 0,-745.3 0,-4057.74 0,-4057.74 H 9209.93" /></g><path
         id="path160"
         style="fill:#ad9b87;fill-opacity:1;fill-rule:nonzero;stroke:none"
         d="m 11418,2413.4 v 1405.9 h 563.5 l 181.2,341.5 h 2465.6 l 831,-1747.4 H 11418" /><path
         id="path162"
         style="fill:#dd1f26;fill-opacity:1;fill-rule:nonzero;stroke:none"
         d="m 13197.2,12271.8 c 0,198 160.6,358.6 358.6,358.6 198.1,0 358.6,-160.6 358.6,-358.6 0,-198.1 -160.5,-358.6 -358.6,-358.6 -198,0 -358.6,160.5 -358.6,358.6" /><path
         id="path164"
         style="fill:#dd1f26;fill-opacity:1;fill-rule:nonzero;stroke:none"
         d="m 13244.9,5563.8 c -74.7,77.6 -121.2,182.7 -121.2,299 0,139.4 67.2,262.1 169.7,341.1 -77.2,71.1 -126.5,172.2 -126.5,285.4 0,162 99.1,300.7 239.9,359.1 -116,55.8 -196.7,173.4 -196.7,310.8 0,145.8 90.6,269.9 218.3,320.7 -103.2,48.2 -175.1,152.1 -175.1,273.4 0,125.1 75.9,232.3 184.1,278.4 -83.3,43.1 -140.8,129.1 -140.8,229.4 0,143.2 116,259.3 259.2,259.3 143.2,0 259.3,-116.1 259.3,-259.3 0,-100.3 -57.5,-186.3 -140.8,-229.4 108.1,-46.1 184,-153.3 184,-278.4 0,-121.3 -71.9,-225.2 -175,-273.4 127.7,-50.8 218.2,-174.9 218.2,-320.7 0,-137.4 -80.7,-255 -196.7,-310.8 140.8,-58.4 240,-197.1 240,-359.1 0,-113.2 -49.3,-214.3 -126.6,-285.4 102.6,-79 169.8,-201.7 169.8,-341.1 0,-116.3 -46.5,-221.4 -121.2,-299 106.2,-89.2 175.2,-221.3 175.2,-370.9 0,-268.4 -217.7,-486.1 -486.2,-486.1 -268.5,0 -486.1,217.7 -486.1,486.1 0,149.6 68.9,281.7 175.2,370.9" /><g
         transform="scale(1.29064)"
         id="g166"><path
           id="path168"
           style="fill:#dbb065;fill-opacity:1;fill-rule:nonzero;stroke:none"
           d="m 3457.57,16053 c 0,136.4 -110.57,247 -246.97,247 -136.4,0 -246.96,-110.6 -246.96,-247 0,-136.4 110.56,-246.9 246.96,-246.9 136.4,0 246.97,110.5 246.97,246.9" /></g><g
         transform="scale(1.29064)"
         id="g170"><path
           id="path172"
           style="fill:#dbb065;fill-opacity:1;fill-rule:nonzero;stroke:none"
           d="m 5239.28,16053 c 0,136.4 -110.58,247 -246.97,247 -136.4,0 -246.97,-110.6 -246.97,-247 0,-136.4 110.57,-246.9 246.97,-246.9 136.39,0 246.97,110.5 246.97,246.9" /></g><g
         transform="scale(1.29064)"
         id="g174"><path
           id="path176"
           style="fill:#dbb065;fill-opacity:1;fill-rule:nonzero;stroke:none"
           d="m 7038.63,16053 c 0,136.4 -110.58,247 -246.97,247 -136.4,0 -246.97,-110.6 -246.97,-247 0,-136.4 110.57,-246.9 246.97,-246.9 136.39,0 246.97,110.5 246.97,246.9" /></g><g
         transform="scale(1.55533)"
         id="g178"><path
           id="path180"
           style="fill:#dbb065;fill-opacity:1;fill-rule:nonzero;stroke:none"
           d="M 7473.28,15641.3 H 4178.97 c -181.9,0 -329.36,147.4 -329.36,329.3 v 0 c 0,181.9 147.46,329.4 329.36,329.4 h 3294.31 c 181.9,0 329.39,-147.5 329.39,-329.4 v 0 c 0,-181.9 -147.49,-329.3 -329.39,-329.3" /></g><path
         id="path182"
         style="fill:#786658;fill-opacity:1;fill-rule:nonzero;stroke:none"
         d="M 10256.9,6431.9 H 6705.09 v 3654.2 H 10256.9 V 6431.9" /><path
         id="path184"
         style="fill:#cab69e;fill-opacity:1;fill-rule:nonzero;stroke:none"
         d="M 10256.9,6431.9 H 6705.09 V 9608 H 10256.9 V 6431.9" /><path
         id="path186"
         style="fill:#50668e;fill-opacity:1;fill-rule:nonzero;stroke:none"
         d="m 12162.7,6431.9 h -456 v 3654.2 h 456 v -146.5 h -309.5 V 6578.3 h 309.5 v -146.4" /><path
         id="path188"
         style="fill:#dbb065;fill-opacity:1;fill-rule:nonzero;stroke:none"
         d="m 14824.3,10495.9 v 0 c -240.3,0 -435.1,194.8 -435.1,435.1 v 3125.5 c 0,240.3 194.8,435.1 435.1,435.1 v 0 c 240.3,0 435.1,-194.8 435.1,-435.1 V 10931 c 0,-240.3 -194.8,-435.1 -435.1,-435.1" /><path
         id="path190"
         style="fill:#dbb065;fill-opacity:1;fill-rule:nonzero;stroke:none"
         d="m 3364.57,10495.9 v 0 c -240.3,0 -435.11,194.8 -435.11,435.1 v 3125.5 c 0,240.3 194.81,435.1 435.11,435.1 v 0 c 240.31,0 435.11,-194.8 435.11,-435.1 V 10931 c 0,-240.3 -194.8,-435.1 -435.11,-435.1" /><g
         transform="scale(1.11184)"
         id="g192"><path
           id="path194"
           style="fill:#50668e;fill-opacity:1;fill-rule:nonzero;stroke:none"
           d="M 16300.1,0 H 0 V 1146.75 H 16300.1 V 0" /></g><g
         transform="scale(1.07134)"
         id="g196"><path
           id="path198"
           style="fill:#bdaa94;fill-opacity:1;fill-rule:nonzero;stroke:none"
           d="m 16300,14100.5 h -1870.1 v -255 H 16300 v 255" /></g><g
         transform="scale(1.07134)"
         id="g200"><path
           id="path202"
           style="fill:#dd1f26;fill-opacity:1;fill-rule:nonzero;stroke:none"
           d="m 16300,13303.5 h -1870.1 v -191.3 H 16300 v 191.3" /></g><g
         transform="scale(1.07134)"
         id="g204"><path
           id="path206"
           style="fill:#dd1f26;fill-opacity:1;fill-rule:nonzero;stroke:none"
           d="m 16300,12198.4 h -1870.1 v -191.3 H 16300 v 191.3" /></g><g
         transform="scale(1.07134)"
         id="g208"><path
           id="path210"
           style="fill:#dd1f26;fill-opacity:1;fill-rule:nonzero;stroke:none"
           d="m 16300,11093.3 h -1870.1 v -191.2 H 16300 v 191.2" /></g><g
         transform="scale(1.07134)"
         id="g212"><path
           id="path214"
           style="fill:#dd1f26;fill-opacity:1;fill-rule:nonzero;stroke:none"
           d="M 16300,9988.26 H 14429.9 V 9797 H 16300 v 191.26" /></g><path
         id="path216"
         style="fill:#dd1f26;fill-opacity:1;fill-rule:nonzero;stroke:none"
         d="M 1657.51,1866.9 V 6056.2 H 1452.6 V 1866.9 h 204.91" /><g
         transform="scale(1.02273)"
         id="g218"><path
           id="path220"
           style="fill:#dd1f26;fill-opacity:1;fill-rule:nonzero;stroke:none"
           d="M 16099.7,1825.41 V 5921.6 H 16300 V 1825.41 h -200.3" /></g><g
         transform="scale(1.01617)"
         id="g222"><path
           id="path224"
           style="fill:#dd1f26;fill-opacity:1;fill-rule:nonzero;stroke:none"
           d="M 16300,5959.85 V 9724 h -201.6 V 5959.85 h 201.6" /></g><g
         transform="scale(1.02273)"
         id="g226"><path
           id="path228"
           style="fill:#dd1f26;fill-opacity:1;fill-rule:nonzero;stroke:none"
           d="M 16300,1925.63 H 1420.32 V 1725.28 H 16300 v 200.35" /></g><g
         transform="scale(1.37863)"
         id="g230"><path
           id="path232"
           style="fill:#ffffff;fill-opacity:1;fill-rule:nonzero;stroke:none"
           d="m 4227.77,13756.7 h -776.2 c -118.57,0 -214.69,96.2 -214.69,214.7 v 2113.9 c 0,118.6 96.12,214.7 214.69,214.7 h 776.2 c 118.56,0 214.69,-96.1 214.69,-214.7 v -2113.9 c 0,-118.5 -96.13,-214.7 -214.69,-214.7" /></g><g
         transform="scale(1.37863)"
         id="g234"><path
           id="path236"
           style="fill:#ffffff;fill-opacity:1;fill-rule:nonzero;stroke:none"
           d="m 5895.75,13756.7 h -776.19 c -118.57,0 -214.69,96.2 -214.69,214.7 v 2113.9 c 0,118.6 96.12,214.7 214.69,214.7 h 776.19 c 118.57,0 214.69,-96.1 214.69,-214.7 v -2113.9 c 0,-118.5 -96.12,-214.7 -214.69,-214.7" /></g><g
         transform="scale(1.37863)"
         id="g238"><path
           id="path240"
           style="fill:#ffffff;fill-opacity:1;fill-rule:nonzero;stroke:none"
           d="m 7580.26,13756.7 h -776.2 c -118.57,0 -214.69,96.2 -214.69,214.7 v 2113.9 c 0,118.6 96.12,214.7 214.69,214.7 h 776.2 c 118.53,0 214.71,-96.1 214.71,-214.7 v -2113.9 c 0,-118.5 -96.18,-214.7 -214.71,-214.7" /></g><g
         transform="scale(1.37863)"
         id="g242"><path
           id="path244"
           style="fill:#c1c1c1;fill-opacity:1;fill-rule:nonzero;stroke:none"
           d="m 4227.76,16300 h -776.19 c -118.57,0 -214.69,-96.1 -214.69,-214.7 v -247.7 c 0,118.6 96.12,214.7 214.69,214.7 h 776.19 c 118.57,0 214.7,-96.1 214.7,-214.7 v 247.7 c 0,118.6 -96.13,214.7 -214.7,214.7" /></g><g
         transform="scale(1.37863)"
         id="g246"><path
           id="path248"
           style="fill:#c1c1c1;fill-opacity:1;fill-rule:nonzero;stroke:none"
           d="m 5895.75,16300 h -776.19 c -118.57,0 -214.69,-96.1 -214.69,-214.7 v -247.7 c 0,118.6 96.12,214.7 214.69,214.7 h 776.19 c 118.57,0 214.69,-96.1 214.69,-214.7 v 247.7 c 0,118.6 -96.12,214.7 -214.69,214.7" /></g><g
         transform="scale(1.37863)"
         id="g250"><path
           id="path252"
           style="fill:#c1c1c1;fill-opacity:1;fill-rule:nonzero;stroke:none"
           d="m 7580.26,16300 h -776.2 c -118.57,0 -214.69,-96.1 -214.69,-214.7 v -247.7 c 0,118.6 96.12,214.7 214.69,214.7 h 776.2 c 118.53,0 214.71,-96.1 214.71,-214.7 v 247.7 c 0,118.6 -96.18,214.7 -214.71,214.7" /></g><g
         transform="scale(1.20264)"
         id="g254"><path
           id="path256"
           style="fill:#c1c1c1;fill-opacity:1;fill-rule:nonzero;stroke:none"
           d="m 4846.46,15769.9 h -889.78 c -135.92,0 -246.11,110.2 -246.11,246.1 v 284 c 0,-136 110.19,-246.1 246.11,-246.1 h 889.78 c 135.92,0 246.11,110.1 246.11,246.1 v -284 c 0,-135.9 -110.19,-246.1 -246.11,-246.1" /></g><g
         transform="scale(1.20264)"
         id="g258"><path
           id="path260"
           style="fill:#c1c1c1;fill-opacity:1;fill-rule:nonzero;stroke:none"
           d="m 6758.54,15769.9 h -889.78 c -135.92,0 -246.11,110.2 -246.11,246.1 v 284 c 0,-136 110.19,-246.1 246.11,-246.1 h 889.78 c 135.92,0 246.1,110.1 246.1,246.1 v -284 c 0,-135.9 -110.18,-246.1 -246.1,-246.1" /></g><g
         transform="scale(1.20264)"
         id="g262"><path
           id="path264"
           style="fill:#c1c1c1;fill-opacity:1;fill-rule:nonzero;stroke:none"
           d="m 8689.57,15769.9 h -889.8 c -135.92,0 -246.11,110.2 -246.11,246.1 v 284 c 0,-136 110.19,-246.1 246.11,-246.1 h 889.8 c 135.86,0 246.12,110.1 246.12,246.1 v -284 c 0,-135.9 -110.26,-246.1 -246.12,-246.1" /></g><g
         transform="scale(1.64961)"
         id="g266"><path
           id="path268"
           style="fill:#dd1f26;fill-opacity:1;fill-rule:nonzero;stroke:none"
           d="m 1554.4,16300 c -392.62,-831.4 -543.49,-2121.6 -543.49,-2806.6 V 9157.56 h 117.42 v 4335.84 c 0,688.7 153.32,1998.3 555.67,2806.6 h -129.6" /></g><g
         transform="scale(1.64961)"
         id="g270"><path
           id="path272"
           style="fill:#dd1f26;fill-opacity:1;fill-rule:nonzero;stroke:none"
           d="m 9431.87,16300 c 392.63,-831.4 543.52,-2121.6 543.52,-2806.6 V 9157.56 h -117.42 v 4335.84 c 0,688.7 -153.31,1998.3 -555.65,2806.6 h 129.55" /></g><g
         transform="scale(1.30085)"
         id="g274"><path
           id="path276"
           style="fill:#dd1f26;fill-opacity:1;fill-rule:nonzero;stroke:none"
           d="m 7924.5,16220.1 c 0,42.1 -32.75,76.6 -74.19,79.6 -0.92,0.1 -1.92,0.3 -2.92,0.3 h -456.38 c -1,0 -1.93,-0.2 -2.89,-0.3 -1.89,0.1 -3.79,0.3 -5.71,0.3 -44.16,0 -79.95,-35.8 -79.95,-79.9 0,-44.2 35.79,-80 79.95,-80 1.7,0 3.38,0.2 5.06,0.2 1.15,-0.1 2.31,-0.3 3.54,-0.3 h 265.18 c -41.1,-52.8 -74.68,-111.3 -100.08,-174.7 -31.69,-79.1 -52.25,-166 -61.13,-258.2 l -4.11,-44.4 c 0,-0.1 0.12,-0.2 0.12,-0.2 -0.49,-4.2 -0.87,-8.3 -0.87,-12.5 0,-53.1 43.37,-96.1 96.86,-96.1 53.52,0 96.88,43 96.88,96.1 v 0 l 5.25,52.5 c 9.61,94 26.29,160.6 49.66,227.2 22.91,65.6 101.32,164.2 162.2,233.7 14.53,14.5 23.53,34.5 23.53,56.7" /></g><g
         transform="scale(1.30085)"
         id="g278"><path
           id="path280"
           style="fill:#dd1f26;fill-opacity:1;fill-rule:nonzero;stroke:none"
           d="m 6147.97,16220.1 c 0,42.1 -32.72,76.6 -74.16,79.6 -0.96,0.1 -1.92,0.3 -2.9,0.3 H 5614.5 c -1,0 -1.93,-0.2 -2.87,-0.3 -1.9,0.1 -3.81,0.3 -5.73,0.3 -44.15,0 -79.94,-35.8 -79.94,-79.9 0,-44.2 35.79,-80 79.94,-80 1.71,0 3.38,0.2 5.07,0.2 1.15,-0.1 2.31,-0.3 3.53,-0.3 h 265.18 c -41.09,-52.8 -74.67,-111.3 -100.07,-174.7 -31.69,-79.1 -52.25,-166 -61.13,-258.2 l -4.11,-44.4 c 0,-0.1 0.12,-0.2 0.12,-0.2 -0.5,-4.2 -0.87,-8.3 -0.87,-12.5 0,-53.1 43.36,-96.1 96.85,-96.1 53.53,0 96.89,43 96.89,96.1 v 0 l 5.23,52.5 c 9.61,94 26.31,160.6 49.65,227.2 22.94,65.6 101.35,164.2 162.23,233.7 14.52,14.5 23.5,34.5 23.5,56.7" /></g><g
         transform="scale(1.30085)"
         id="g282"><path
           id="path284"
           style="fill:#dd1f26;fill-opacity:1;fill-rule:nonzero;stroke:none"
           d="m 4371.47,16220.1 c 0,42.1 -32.71,76.6 -74.17,79.6 -0.95,0.1 -1.91,0.3 -2.88,0.3 h -456.41 c -1,0 -1.94,-0.2 -2.89,-0.3 -1.89,0.1 -3.8,0.3 -5.72,0.3 -44.16,0 -79.95,-35.8 -79.95,-79.9 0,-44.2 35.79,-80 79.95,-80 1.7,0 3.38,0.2 5.07,0.2 1.15,-0.1 2.31,-0.3 3.54,-0.3 h 265.18 c -41.11,-52.8 -74.68,-111.3 -100.08,-174.7 -31.69,-79.1 -52.25,-166 -61.13,-258.2 l -4.11,-44.4 c 0,-0.1 0.12,-0.2 0.12,-0.2 -0.5,-4.2 -0.87,-8.3 -0.87,-12.5 0,-53.1 43.37,-96.1 96.85,-96.1 53.53,0 96.89,43 96.89,96.1 v 0 l 5.22,52.5 c 9.62,94 26.31,160.6 49.65,227.2 22.94,65.6 101.35,164.2 162.24,233.7 14.51,14.5 23.5,34.5 23.5,56.7" /></g><g
         transform="scale(1.14273)"
         id="g286"><path
           id="path288"
           style="fill:#ffffff;fill-opacity:1;fill-rule:nonzero;stroke:none"
           d="M 10428.5,13372.4 H 5430.96 V 16300 h 4997.54 v -2927.6" /></g><g
         transform="scale(1.06561)"
         id="g290"><path
           id="path292"
           style="fill:#ffffff;fill-opacity:1;fill-rule:nonzero;stroke:none"
           d="m 10793.1,15909.9 c 0,215.5 174.7,390.1 390.1,390.1 215.5,0 390.1,-174.6 390.1,-390.1 0,-215.5 -174.6,-390.2 -390.1,-390.2 -215.4,0 -390.1,174.7 -390.1,390.2" /></g><g
         transform="scale(1.04977)"
         id="g294"><path
           id="path296"
           style="fill:#50668e;fill-opacity:1;fill-rule:nonzero;stroke:none"
           d="m 11202,16150.1 c 0,82.7 67.2,149.9 150,149.9 82.8,0 150,-67.2 150,-149.9 0,-82.9 -67.2,-150.1 -150,-150.1 -82.8,0 -150,67.2 -150,150.1" /></g><g
         transform="scale(1.06561)"
         id="g298"><path
           id="path300"
           style="fill:#ffffff;fill-opacity:1;fill-rule:nonzero;stroke:none"
           d="m 5433.86,15909.9 c 0,215.5 174.66,390.1 390.13,390.1 215.46,0 390.12,-174.6 390.12,-390.1 0,-215.5 -174.66,-390.2 -390.12,-390.2 -215.47,0 -390.13,174.7 -390.13,390.2" /></g><g
         transform="scale(1.04977)"
         id="g302"><path
           id="path304"
           style="fill:#50668e;fill-opacity:1;fill-rule:nonzero;stroke:none"
           d="m 5761.91,16150.1 c 0,82.7 67.16,149.9 149.99,149.9 82.84,0 150,-67.2 150,-149.9 0,-82.9 -67.16,-150.1 -150,-150.1 -82.83,0 -149.99,67.2 -149.99,150.1" /></g><g
         transform="scale(1.44009)"
         id="g306"><path
           id="path308"
           style="fill:#ffffff;fill-opacity:1;fill-rule:nonzero;stroke:none"
           d="M 9738.27,13169.6 H 7931.3 V 16300 h 1806.97 v -3130.4" /></g><g
         transform="scale(1.32731)"
         id="g310"><path
           id="path312"
           style="fill:#ffffff;fill-opacity:1;fill-rule:nonzero;stroke:none"
           d="m 10252.5,15986.8 c 0,173 140.2,313.2 313.2,313.2 173,0 313.3,-140.2 313.3,-313.2 0,-173 -140.3,-313.2 -313.3,-313.2 -173,0 -313.2,140.2 -313.2,313.2" /></g><g
         transform="scale(1.31147)"
         id="g314"><path
           id="path316"
           style="fill:#50668e;fill-opacity:1;fill-rule:nonzero;stroke:none"
           d="m 10573.3,16179.9 c 0,66.3 53.8,120.1 120,120.1 66.4,0 120.1,-53.8 120.1,-120.1 0,-66.3 -53.7,-120.1 -120.1,-120.1 -66.2,0 -120,53.8 -120,120.1" /></g><g
         transform="scale(1.32731)"
         id="g318"><path
           id="path320"
           style="fill:#ffffff;fill-opacity:1;fill-rule:nonzero;stroke:none"
           d="m 8289.15,15986.8 c 0,173 140.21,313.2 313.19,313.2 172.99,0 313.19,-140.2 313.19,-313.2 0,-173 -140.2,-313.2 -313.19,-313.2 -172.98,0 -313.19,140.2 -313.19,313.2" /></g><g
         transform="scale(1.31147)"
         id="g322"><path
           id="path324"
           style="fill:#50668e;fill-opacity:1;fill-rule:nonzero;stroke:none"
           d="m 8586.23,16179.9 c 0,66.3 53.68,120.1 120.01,120.1 66.34,0 120.1,-53.8 120.1,-120.1 0,-66.3 -53.76,-120.1 -120.1,-120.1 -66.33,0 -120.01,53.8 -120.01,120.1" /></g><g
         transform="scale(1.41634)"
         id="g326"><path
           id="path328"
           style="fill:#c1c1c1;fill-opacity:1;fill-rule:nonzero;stroke:none"
           d="M 9628.22,13663.9 H 8337.71 V 16300 h 1290.51 v -2636.1" /></g><g
         transform="scale(1.41634)"
         id="g330"><path
           id="path332"
           style="fill:#9e9e9e;fill-opacity:1;fill-rule:nonzero;stroke:none"
           d="M 9628.22,16141.2 H 8337.71 v 158.8 h 1290.51 v -158.8" /></g><g
         transform="scale(1.20108)"
         id="g334"><path
           id="path336"
           style="fill:#9e9e9e;fill-opacity:1;fill-rule:nonzero;stroke:none"
           d="M 11353.8,16112.8 H 9831.99 v 187.2 h 1521.81 v -187.2" /></g><g
         transform="scale(1.53194)"
         id="g338"><path
           id="path340"
           style="fill:#a1814a;fill-opacity:1;fill-rule:nonzero;stroke:none"
           d="m 4847.36,16097.7 h -393.35 c -30.26,0 -54.79,24.5 -54.79,54.8 v 92.7 c 0,30.3 24.53,54.8 54.79,54.8 h 393.35 c 30.26,0 54.79,-24.5 54.79,-54.8 v -92.7 c 0,-30.3 -24.53,-54.8 -54.79,-54.8" /></g><g
         transform="scale(1.53194)"
         id="g342"><path
           id="path344"
           style="fill:#a1814a;fill-opacity:1;fill-rule:nonzero;stroke:none"
           d="m 5690.3,16097.7 h -393.35 c -30.26,0 -54.79,24.5 -54.79,54.8 v 92.7 c 0,30.3 24.53,54.8 54.79,54.8 h 393.35 c 30.26,0 54.79,-24.5 54.79,-54.8 v -92.7 c 0,-30.3 -24.53,-54.8 -54.79,-54.8" /></g><g
         transform="scale(1.53194)"
         id="g346"><path
           id="path348"
           style="fill:#a1814a;fill-opacity:1;fill-rule:nonzero;stroke:none"
           d="M 6533.24,16097.7 H 6139.9 c -30.27,0 -54.8,24.5 -54.8,54.8 v 92.7 c 0,30.3 24.53,54.8 54.8,54.8 h 393.34 c 30.29,0 54.76,-24.5 54.76,-54.8 v -92.7 c 0,-30.3 -24.47,-54.8 -54.76,-54.8" /></g><g
         transform="scale(1.53194)"
         id="g350"><path
           id="path352"
           style="fill:#a1814a;fill-opacity:1;fill-rule:nonzero;stroke:none"
           d="m 7376.16,16097.7 h -393.3 c -30.29,0 -54.83,24.5 -54.83,54.8 v 92.7 c 0,30.3 24.54,54.8 54.83,54.8 h 393.3 c 30.28,0 54.83,-24.5 54.83,-54.8 v -92.7 c 0,-30.3 -24.55,-54.8 -54.83,-54.8" /></g><path
         id="path354"
         style="fill:#cab69e;fill-opacity:1;fill-rule:nonzero;stroke:none"
         d="M 11418,3819.3 H 6705.09 V 2413.4 H 11418 v 1405.9" /><g
         transform="scale(1.10255)"
         id="g356"><path
           id="path358"
           style="fill:#c1c1c1;fill-opacity:1;fill-rule:nonzero;stroke:none"
           d="m 8918.22,16300 h -195.21 c 0,-297.1 -185.9,-428 -349.59,-485.6 -0.14,3.8 -0.14,7.4 -0.31,11.2 l -186.61,243.7 c 16.15,16.3 28.51,36.4 35.52,58.9 h 114.22 v 3.4 l 36.87,-48.3 v 52 c 0,60.8 -49.26,110.1 -110.04,110.1 h -39.53 c -9.45,21.8 -31.11,36.9 -56.34,36.9 h -168.92 c -31.92,0 -58.14,-24.3 -61.13,-55.4 h -0.3 v -6 -49.2 -5.6 h 0.28 c 1.44,-37.7 17.05,-71.7 41.85,-96.8 l -186.61,-243.7 v 0 c -0.18,-3.8 -0.17,-7.4 -0.31,-11.2 -163.71,57.6 -349.59,188.5 -349.59,485.6 h -195.21 c -323.42,0 -585.62,-262.1 -585.62,-585.6 0,0 0,-374.8 0,-746.2 27.01,35.3 63.77,60.8 108.06,80.1 v 599.7 c 0,19.6 16.01,35.7 35.77,35.7 19.75,0 35.77,-16.1 35.77,-35.7 v -575.3 c 33.77,9 70.41,16.1 109.31,22.1 v 553.2 c 0,19.6 16.02,35.7 35.77,35.7 19.75,0 35.77,-16.1 35.77,-35.7 v -543.4 c 35.18,4.2 71.73,8.3 109.31,12.5 v 530.9 c 0,19.6 16.02,35.7 35.78,35.7 19.75,0 35.77,-16.1 35.77,-35.7 v -522.4 c 35.85,4.5 72.37,9.5 109.31,15.5 v 506.9 c 0,19.6 16.02,35.7 35.77,35.7 19.75,0 35.77,-16.1 35.77,-35.7 v -493.8 c 36.33,7.3 72.84,15.9 109.32,26.2 v 467.6 c 0,19.6 16.01,35.7 35.76,35.7 19.76,0 35.77,-16.1 35.77,-35.7 v -445 c 36.78,12.9 73.3,27.7 109.32,45.1 v 399.9 c 0,19.6 16.02,35.7 35.77,35.7 19.76,0 35.77,-16.1 35.77,-35.7 v -361.5 c 37.34,22.2 73.86,47.6 109.32,76.7 v 24.1 c 17.55,-47.3 37.38,-89 57.94,-125.4 -107.02,-66.6 -242.31,-185.4 -337.03,-390.8 l 83.18,-41 h -419.75 c 0,0 -107.31,105.4 -216.62,0 l 93.83,-36.3 c -36.91,-11.8 -74.82,-40.1 -93.83,-102.9 l 110.92,15.6 c -16.15,-31.1 -22.51,-72.6 -1.39,-125.6 l 156.52,165.3 h 349.55 c 36.29,0 67.12,23.1 78.83,55.4 l 112.25,-55.4 c 0,0 34.96,132.9 178.3,245.8 -61.41,-130.3 -129.17,-375 -70.08,-770.6 l 145.29,103.5 145.29,-103.5 c 59.09,395.6 -8.67,640.3 -70.08,770.6 143.34,-112.9 178.29,-245.8 178.29,-245.8 l 112.26,55.4 c 11.71,-32.3 42.53,-55.4 78.83,-55.4 h 349.54 l 156.53,-165.3 c 21.12,53 14.76,94.5 -1.4,125.6 l 110.93,-15.6 c -19.05,62.8 -56.96,91.1 -93.84,102.9 l 93.84,36.3 c -109.31,105.4 -216.63,0 -216.63,0 h -419.74 l 83.18,41 c -94.73,205.4 -230.02,324.2 -337.03,390.8 20.56,36.4 40.39,78.1 57.94,125.4 v -24.1 c 35.45,-29.1 71.98,-54.5 109.32,-76.7 v 361.5 c 0,19.6 16.01,35.7 35.77,35.7 19.75,0 35.76,-16.1 35.76,-35.7 v -399.9 c 36.02,-17.4 72.55,-32.2 109.32,-45.1 v 445 c 0,19.6 16.02,35.7 35.77,35.7 19.76,0 35.77,-16.1 35.77,-35.7 v -467.6 c 36.46,-10.3 72.99,-18.9 109.31,-26.2 v 493.8 c 0,19.6 16.02,35.7 35.78,35.7 19.75,0 35.77,-16.1 35.77,-35.7 v -506.9 c 36.93,-6 73.46,-11 109.31,-15.5 v 522.4 c 0,19.6 16.02,35.7 35.77,35.7 19.76,0 35.77,-16.1 35.77,-35.7 v -530.9 c 37.57,-4.2 74.12,-8.3 109.31,-12.5 v 543.4 c 0,19.6 16.06,35.7 35.74,35.7 19.77,0 35.83,-16.1 35.83,-35.7 v -553.2 c 38.91,-6 75.55,-13.1 109.29,-22.1 v 575.3 c 0,19.6 16.05,35.7 35.73,35.7 v 0 c 19.78,0 35.83,-16.1 35.83,-35.7 v -599.7 c 44.26,-19.3 80.99,-44.8 108.02,-80.1 0,371.4 0,746.2 0,746.2 0,323.5 -262.21,585.6 -585.6,585.6" /></g><g
         transform="scale(1.38699)"
         id="g360"><path
           id="path362"
           style="fill:#bababa;fill-opacity:1;fill-rule:nonzero;stroke:none"
           d="m 12683.6,11149.9 v 0 5013.9 c 0,75.2 61,136.2 136.2,136.2 v 0 c 75.2,0 136.2,-61 136.2,-136.2 v -3644.9 l 77.3,-145.1 v -951.4 c 0,-150.5 -199.3,-272.5 -349.7,-272.5" /></g><g
         transform="scale(1.38699)"
         id="g364"><path
           id="path366"
           style="fill:#8c8c8c;fill-opacity:1;fill-rule:nonzero;stroke:none"
           d="m 12683.6,16163.8 v -5013.9 c 49.7,0 96.1,13.5 136.2,36.8 V 16300 c -75.2,0 -136.2,-61 -136.2,-136.2" /></g></g></g></svg>