<?xml version="1.0" encoding="UTF-8" standalone="no"?>
<svg
   xmlns:dc="http://purl.org/dc/elements/1.1/"
   xmlns:cc="http://creativecommons.org/ns#"
   xmlns:rdf="http://www.w3.org/1999/02/22-rdf-syntax-ns#"
   xmlns:svg="http://www.w3.org/2000/svg"
   xmlns="http://www.w3.org/2000/svg"
   viewBox="0 0 2560.8533 4032.3733"
   height="4032.3733"
   width="2560.8533"
   xml:space="preserve"
   id="svg2"
   version="1.1"><metadata
     id="metadata8"><rdf:RDF><cc:Work
         rdf:about=""><dc:format>image/svg+xml</dc:format><dc:type
           rdf:resource="http://purl.org/dc/dcmitype/StillImage" /></cc:Work></rdf:RDF></metadata><defs
     id="defs6" /><g
     transform="matrix(1.3333333,0,0,-1.3333333,0,4032.3733)"
     id="g10"><g
       transform="scale(0.1)"
       id="g12"><g
         transform="scale(1.17828)"
         id="g14"><path
           id="path16"
           style="fill:#a56b5e;fill-opacity:1;fill-rule:nonzero;stroke:none"
           d="m 16300.3,11176.6 h -1001.1 v 293.2 h 1001.1 v -293.2" /></g><g
         transform="scale(1.17828)"
         id="g18"><path
           id="path20"
           style="fill:#a56b5e;fill-opacity:1;fill-rule:nonzero;stroke:none"
           d="m 16300.3,5646.53 h -1001.1 v 293.22 h 1001.1 v -293.22" /></g><g
         transform="scale(1.11521)"
         id="g22"><path
           id="path24"
           style="fill:#4d322c;fill-opacity:1;fill-rule:nonzero;stroke:none"
           d="m 412.78,13763.2 490.081,568 H 15809.9 l 490.1,-568 H 412.78" /></g><path
         id="path26"
         style="fill:#4d322c;fill-opacity:1;fill-rule:nonzero;stroke:none"
         d="m 659.531,3112.7 c 0,0 118.207,-906.2 591.029,-1221.5 C 1723.37,1576 955.047,1339.6 955.047,1339.6 H 659.531 c 0,0 -827.429,-906.198 -551.621,-1339.6 H 2314.4 v 1694.2 l 591.02,1221.5 -2245.889,197" /><g
         transform="scale(1.14059)"
         id="g28"><path
           id="path30"
           style="fill:#4d322c;fill-opacity:1;fill-rule:nonzero;stroke:none"
           d="m 15574.6,2729.03 c 0,0 -103.6,-794.5 -518.3,-1070.94 -414.5,-276.34 259.2,-483.61 259.2,-483.61 h 259.1 c 0,0 725.4,-794.499 483.6,-1174.48 h -1934.5 v 1485.37 l -518.2,1070.94 1969.1,172.72" /></g><g
         transform="scale(1.85539)"
         id="g32"><path
           id="path34"
           style="fill:#f9a721;fill-opacity:1;fill-rule:nonzero;stroke:none"
           d="m 1287.53,12793.7 v 1769.5 l 129.28,9.2 c 3.06,0.3 361.84,31.6 716.74,310.4 18.81,14.8 37.82,29.9 57.09,45.1 365.32,289.1 858.99,679.6 1850.89,717.8 l -28.75,201.3 h 261.75 c 91.3,196.7 319.77,453 748.21,453 428.42,0 656.89,-256.3 748.19,-453 h 261.78 l -28.78,-201.3 c 991.86,-38.2 1485.56,-428.7 1850.88,-717.8 19.29,-15.2 38.32,-30.3 57.13,-45.1 354.91,-278.8 713.65,-310.1 717.26,-310.4 l 128.22,-10.2 0.54,-128.6 V 12793.7 H 1287.53" /></g><g
         transform="scale(1.83954)"
         id="g36"><path
           id="path38"
           style="fill:#70483f;fill-opacity:1;fill-rule:nonzero;stroke:none"
           d="m 8692.98,13044.3 v 1513.6 c 0,0 -399.83,28.6 -799.66,342.7 -399.82,314.2 -885.33,742.5 -1999.13,742.5 l 28.59,200 h -199.94 c 0,0 -114.22,456.9 -656.85,456.9 -542.61,0 -656.85,-456.9 -656.85,-456.9 h -199.91 l 28.56,-200 c -1113.8,0 -1599.3,-428.3 -1999.13,-742.5 -399.82,-314.1 -799.65,-342.7 -799.65,-342.7 v -1513.6 h 7253.97" /></g><g
         transform="scale(1.50112)"
         id="g40"><path
           id="path42"
           style="fill:#835646;fill-opacity:1;fill-rule:nonzero;stroke:none"
           d="M 11745.4,16300 H 670.75 V 10574.7 H 11745.4 V 16300" /></g><g
         transform="scale(1.11521)"
         id="g44"><path
           id="path46"
           style="fill:#70483f;fill-opacity:1;fill-rule:nonzero;stroke:none"
           d="M 16300,2660.58 H 412.78 V 13860.3 H 16300 V 2660.58" /></g><g
         transform="scale(1.03958)"
         id="g48"><path
           id="path50"
           style="fill:#f9a721;fill-opacity:1;fill-rule:nonzero;stroke:none"
           d="M 16300,6399.88 H 1628.58 v 3838.82 c 0,900.1 729.68,1629.8 1629.8,1629.8 H 14670.2 c 900.1,0 1629.8,-729.7 1629.8,-1629.8 V 6399.88" /></g><path
         id="path52"
         style="fill:#fff4c4;fill-opacity:1;fill-rule:nonzero;stroke:none"
         d="m 2658.72,7618.9 v 3081.9 c 0,370.4 301.39,671.8 671.84,671.8 H 15307.6 c 370.5,0 671.9,-301.4 671.9,-671.8 V 7618.9 H 2658.72" /><g
         transform="scale(1.70503)"
         id="g54"><path
           id="path56"
           style="fill:#b47660;fill-opacity:1;fill-rule:nonzero;stroke:none"
           d="m 5640.19,16221.3 c 0,-96.4 -78.16,-174.5 -174.53,-174.5 -96.38,0 -174.54,78.1 -174.54,174.5 0,28.3 6.83,55.1 18.8,78.7 h 311.48 c 11.97,-23.6 18.79,-50.4 18.79,-78.7" /></g><g
         transform="scale(1.70503)"
         id="g58"><path
           id="path60"
           style="fill:#b47660;fill-opacity:1;fill-rule:nonzero;stroke:none"
           d="m 5621.4,16300 c 11.97,-23.6 18.79,-50.4 18.79,-78.7 0,-96.4 -78.16,-174.5 -174.53,-174.5 v 253.2 h 155.74 v 0" /></g><g
         transform="scale(1.81172)"
         id="g62"><path
           id="path64"
           style="fill:#c68069;fill-opacity:1;fill-rule:nonzero;stroke:none"
           d="M 5720.53,15285.1 H 4567.04 l 1.68,56.7 c 0.48,15.9 7.35,157.1 102.38,212.9 79.76,46.8 87.24,182.7 83.43,231.1 l -0.19,4.5 v 86.2 c -0.18,14.3 0.08,198.5 119.48,320.1 67.36,68.6 157.72,103.4 268.58,103.4 0.47,0 0.92,0 1.39,0 0.48,0 0.96,0 1.4,0 110.85,0 201.22,-34.8 268.57,-103.4 119.38,-121.6 119.65,-305.8 119.49,-320.1 v -88.5 l -0.22,-2.3 c -3.81,-48.3 3.7,-184.2 83.45,-231 95.05,-55.8 101.9,-197 102.39,-212.9 l 1.66,-56.7" /></g><g
         transform="scale(1.56238)"
         id="g66"><path
           id="path68"
           style="fill:#b47660;fill-opacity:1;fill-rule:nonzero;stroke:none"
           d="m 2792.37,16267.3 c 52.6,-52.5 52.58,-137.8 0,-190.4 -52.57,-52.5 -137.82,-52.6 -190.42,0 -15.45,15.5 -26.3,33.8 -32.66,53.2 l 169.91,169.9 c 19.43,-6.4 37.72,-17.2 53.17,-32.7" /></g><g
         transform="scale(1.56238)"
         id="g70"><path
           id="path72"
           style="fill:#b47660;fill-opacity:1;fill-rule:nonzero;stroke:none"
           d="m 2739.2,16300 c 19.43,-6.4 37.72,-17.2 53.17,-32.7 52.6,-52.5 52.58,-137.8 0,-190.4 l -138.12,138.1 84.95,85 v 0" /></g><g
         transform="scale(1.61689)"
         id="g74"><path
           id="path76"
           style="fill:#c68069;fill-opacity:1;fill-rule:nonzero;stroke:none"
           d="m 2918.64,15960.6 -646.08,-646.1 -30.82,32.7 c -8.65,9.2 -83.88,92.1 -61.91,176.6 18.47,70.9 -53.47,151.2 -82.72,176.2 l -2.61,2.4 -48.3,48.3 c -8.09,7.9 -111.14,111.2 -112.37,246.2 -0.69,76.1 30.42,146.2 92.51,208.3 0.28,0.3 0.52,0.5 0.81,0.8 0.25,0.3 0.51,0.5 0.76,0.8 62.09,62.1 132.19,93.2 208.34,92.5 134.99,-1.2 238.32,-104.3 246.21,-112.4 l 49.59,-49.6 1.17,-1.3 c 24.92,-29.2 105.24,-101.2 176.13,-82.7 84.48,22 167.39,-53.3 176.58,-61.9 l 32.71,-30.8" /></g><g
         transform="scale(1.56238)"
         id="g78"><path
           id="path80"
           style="fill:#b47660;fill-opacity:1;fill-rule:nonzero;stroke:none"
           d="m 9137.02,16267.3 c -52.61,-52.5 -52.61,-137.8 0,-190.4 52.55,-52.5 137.8,-52.6 190.41,0 15.43,15.5 26.31,33.8 32.65,53.2 l -169.94,169.9 c -19.39,-6.4 -37.69,-17.2 -53.12,-32.7" /></g><g
         transform="scale(1.56238)"
         id="g82"><path
           id="path84"
           style="fill:#b47660;fill-opacity:1;fill-rule:nonzero;stroke:none"
           d="m 9190.14,16300 c -19.39,-6.4 -37.69,-17.2 -53.12,-32.7 -52.61,-52.5 -52.61,-137.8 0,-190.4 l 138.12,138.1 -85,85 v 0" /></g><g
         transform="scale(1.61689)"
         id="g86"><path
           id="path88"
           style="fill:#c68069;fill-opacity:1;fill-rule:nonzero;stroke:none"
           d="m 8608.55,15960.6 646.05,-646.1 30.87,32.7 c 8.65,9.2 83.86,92.1 61.9,176.6 -18.49,70.9 53.44,151.2 82.69,176.2 l 2.6,2.4 48.3,48.3 c 8.11,7.9 111.14,111.2 112.38,246.2 0.74,76.1 -30.43,146.2 -92.52,208.3 -0.25,0.3 -0.5,0.5 -0.81,0.8 -0.24,0.3 -0.49,0.5 -0.74,0.8 -62.09,62.1 -132.17,93.2 -208.36,92.5 -134.95,-1.2 -238.3,-104.3 -246.22,-112.4 l -49.54,-49.6 -1.17,-1.3 c -24.92,-29.2 -105.26,-101.2 -176.14,-82.7 -84.48,22 -167.42,-53.3 -176.57,-61.9 l -32.72,-30.8" /></g><g
         transform="scale(1.50112)"
         id="g90"><path
           id="path92"
           style="fill:#f9a721;fill-opacity:1;fill-rule:nonzero;stroke:none"
           d="M 573.516,16300 V 10591.8 L 206.044,10297 V 1706.12 H 407.278 V 10297 l 367.475,277.7 V 16300 H 573.516" /></g><g
         transform="scale(1.50112)"
         id="g94"><path
           id="path96"
           style="fill:#f9a721;fill-opacity:1;fill-rule:nonzero;stroke:none"
           d="m 11842.7,16300 v -5708.2 l 367.4,-294.8 V 1706.12 h -201.2 V 10297 l -367.5,277.7 V 16300 h 201.3" /></g><path
         id="path98"
         style="fill:#c68069;fill-opacity:1;fill-rule:nonzero;stroke:none"
         d="M 6560.78,10099.4 H 3845.66 c -100.15,0 -181.33,81.1 -181.33,181.3 v 69.1 c 0,100.1 81.18,181.3 181.33,181.3 h 2715.12 c 100.14,0 181.32,-81.2 181.32,-181.3 v -69.1 c 0,-100.2 -81.18,-181.3 -181.32,-181.3" /><path
         id="path100"
         style="fill:#c68069;fill-opacity:1;fill-rule:nonzero;stroke:none"
         d="M 6560.78,9279.9 H 3845.66 c -100.15,0 -181.33,81.2 -181.33,181.3 v 69.1 c 0,100.2 81.18,181.4 181.33,181.4 h 2715.12 c 100.14,0 181.32,-81.2 181.32,-181.4 v -69.1 c 0,-100.1 -81.18,-181.3 -181.32,-181.3" /><path
         id="path102"
         style="fill:#c68069;fill-opacity:1;fill-rule:nonzero;stroke:none"
         d="M 6560.78,8460.4 H 3845.66 c -100.15,0 -181.33,81.2 -181.33,181.3 v 69.2 c 0,100.1 81.18,181.3 181.33,181.3 h 2715.12 c 100.14,0 181.32,-81.2 181.32,-181.3 v -69.2 c 0,-100.1 -81.18,-181.3 -181.32,-181.3" /><path
         id="path104"
         style="fill:#c68069;fill-opacity:1;fill-rule:nonzero;stroke:none"
         d="M 14914.1,10099.4 H 12199 c -100.1,0 -181.3,81.1 -181.3,181.3 v 69.1 c 0,100.1 81.2,181.3 181.3,181.3 h 2715.1 c 100.2,0 181.4,-81.2 181.4,-181.3 v -69.1 c 0,-100.2 -81.2,-181.3 -181.4,-181.3" /><path
         id="path106"
         style="fill:#c68069;fill-opacity:1;fill-rule:nonzero;stroke:none"
         d="M 14914.1,9279.9 H 12199 c -100.1,0 -181.3,81.2 -181.3,181.3 v 69.1 c 0,100.2 81.2,181.4 181.3,181.4 h 2715.1 c 100.2,0 181.4,-81.2 181.4,-181.4 v -69.1 c 0,-100.1 -81.2,-181.3 -181.4,-181.3" /><path
         id="path108"
         style="fill:#c68069;fill-opacity:1;fill-rule:nonzero;stroke:none"
         d="M 14914.1,8460.4 H 12199 c -100.1,0 -181.3,81.2 -181.3,181.3 v 69.2 c 0,100.1 81.2,181.3 181.3,181.3 h 2715.1 c 100.2,0 181.4,-81.2 181.4,-181.3 v -69.2 c 0,-100.1 -81.2,-181.3 -181.4,-181.3" /><path
         id="path110"
         style="fill:#c68069;fill-opacity:1;fill-rule:nonzero;stroke:none"
         d="m 9097.21,9495.8 c 0,333.3 -270.23,603.6 -603.59,603.6 -333.35,0 -603.59,-270.3 -603.59,-603.6 0,-333.4 270.24,-603.6 603.59,-603.6 333.36,0 603.59,270.2 603.59,603.6" /><path
         id="path112"
         style="fill:#c68069;fill-opacity:1;fill-rule:nonzero;stroke:none"
         d="m 10748.1,9495.8 c 0,333.3 -270.2,603.6 -603.5,603.6 -333.4,0 -603.64,-270.3 -603.64,-603.6 0,-333.4 270.24,-603.6 603.64,-603.6 333.3,0 603.5,270.2 603.5,603.6" /><g
         transform="scale(1.65077)"
         id="g114"><path
           id="path116"
           style="fill:#f9a721;fill-opacity:1;fill-rule:nonzero;stroke:none"
           d="m 3400.27,15634.6 v 80.4 h 48.13 v 504.6 h -48.13 v 80.4 h 192.96 v -80.4 h -50.78 V 15715 h 81.24 v 208.8 h 80.36 v -289.2 h -303.78" /></g><g
         transform="scale(1.65077)"
         id="g118"><path
           id="path120"
           style="fill:#f9a721;fill-opacity:1;fill-rule:nonzero;stroke:none"
           d="m 3780.83,15634.6 v 80.4 h 50.79 v 504.6 h -50.79 v 80.4 h 195.61 v -80.4 h -50.79 V 15715 h 50.79 v -80.4 h -195.61" /></g><g
         transform="scale(1.65077)"
         id="g122"><path
           id="path124"
           style="fill:#f9a721;fill-opacity:1;fill-rule:nonzero;stroke:none"
           d="M 4201.4,15942.4 V 15715 c 34.73,0 59.83,8.8 75.28,26.5 15.46,17.7 23.19,46 23.19,84.9 0,34.6 -4.94,60.4 -14.79,77.5 -9.87,17.1 -21.2,27.8 -34.01,32 -12.8,4.3 -29.35,6.5 -49.67,6.5 z m 0,277.2 v -196.9 c 19.13,0.3 34.44,2.2 45.93,5.8 11.47,3.5 20.96,12.2 28.48,26 7.5,13.8 11.25,35.5 11.25,64.9 0,36.2 -5.53,62 -16.56,77.3 -11.04,15.3 -34.07,22.9 -69.1,22.9 z m -94.04,-504.6 v 504.6 h -50.79 v 80.4 h 148.36 c 55.05,0 98.31,-15.3 129.82,-45.9 31.49,-30.6 47.24,-72.5 47.24,-125.8 0,-39.4 -8.91,-71.7 -26.7,-96.8 -17.82,-25.2 -42.62,-39.5 -74.41,-43 v -1.8 c 36.5,-7.1 65.05,-25.6 85.65,-55.5 20.61,-29.8 30.91,-66.3 30.91,-109.3 0,-58.3 -16.78,-104.1 -50.33,-137.4 -33.55,-33.3 -81.25,-49.9 -143.05,-49.9 h -147.49 v 80.4 h 50.79" /></g><g
         transform="scale(1.65077)"
         id="g126"><path
           id="path128"
           style="fill:#f9a721;fill-opacity:1;fill-rule:nonzero;stroke:none"
           d="m 4468.25,15634.6 v 80.4 h 49.02 v 504.6 h -49.02 v 80.4 h 306.43 v -194.3 h -80.35 v 113.9 h -83.01 v -201.7 h 67.55 v -80.4 h -67.55 V 15715 h 83.01 v 124 h 80.35 v -204.4 h -306.43" /></g><g
         transform="scale(1.65077)"
         id="g130"><path
           id="path132"
           style="fill:#f9a721;fill-opacity:1;fill-rule:nonzero;stroke:none"
           d="M 5006.71,16219.6 V 16017 c 35.62,0 61.23,8.1 76.84,24.5 15.6,16.3 23.39,42.3 23.39,77.9 0,37.7 -7.87,63.8 -23.62,78.4 -15.75,14.5 -41.28,21.8 -76.61,21.8 z m 0,-283 V 15715 h 49.46 v -80.4 H 4856.6 v 80.4 h 56.07 v 504.6 h -56.07 v 80.4 h 166.47 c 56.21,0 100.66,-16.5 133.33,-49.4 32.68,-33 49.01,-76.7 49.01,-131.2 0,-70.3 -26.4,-122.5 -79.2,-156.7 l 72.14,-247.7 h 39.74 v -80.4 h -112.48 l -81.8,304.7 c -9.71,-1.8 -22.08,-2.7 -37.1,-2.7" /></g><g
         transform="scale(1.65077)"
         id="g134"><path
           id="path136"
           style="fill:#f9a721;fill-opacity:1;fill-rule:nonzero;stroke:none"
           d="m 5642.65,16300 v -243.3 h -70.19 v 173.1 h -56.54 V 15715 h 52.56 v -80.4 h -199.13 v 80.4 h 52.55 v 514.8 h -56.53 v -173.1 h -70.21 v 243.3 h 347.49" /></g><g
         transform="scale(1.65077)"
         id="g138"><path
           id="path140"
           style="fill:#f9a721;fill-opacity:1;fill-rule:nonzero;stroke:none"
           d="m 5818.47,15634.6 v 80.4 h 46.78 v 213.7 l -107.28,290.9 h -42.81 v 80.4 h 180.13 v -80.4 h -43.21 l 61.24,-178.7 h 1.77 l 57.14,178.7 h -42.5 v 80.4 h 170.87 v -80.4 h -42.83 l -98.46,-283 V 15715 h 47.24 v -80.4 h -188.08" /></g><g
         transform="scale(1.65077)"
         id="g142"><path
           id="path144"
           style="fill:#f9a721;fill-opacity:1;fill-rule:nonzero;stroke:none"
           d="M 6644.95,15942.4 V 15715 c 34.77,0 59.85,8.8 75.3,26.5 15.44,17.7 23.2,46 23.2,84.9 0,34.6 -4.97,60.4 -14.78,77.5 -9.88,17.1 -21.21,27.8 -34.05,32 -12.78,4.3 -29.38,6.5 -49.67,6.5 z m 0,277.2 v -196.9 c 19.14,0.3 34.41,2.2 45.92,5.8 11.51,3.5 20.95,12.2 28.47,26 7.51,13.8 11.26,35.5 11.26,64.9 0,36.2 -5.51,62 -16.53,77.3 -11.09,15.3 -34.05,22.9 -69.12,22.9 z m -94.02,-504.6 v 504.6 h -50.82 v 80.4 h 148.35 c 55.07,0 98.32,-15.3 129.82,-45.9 31.5,-30.6 47.25,-72.5 47.25,-125.8 0,-39.4 -8.91,-71.7 -26.71,-96.8 -17.81,-25.2 -42.59,-39.5 -74.39,-43 v -1.8 c 36.52,-7.1 65.06,-25.6 85.65,-55.5 20.6,-29.8 30.9,-66.3 30.9,-109.3 0,-58.3 -16.78,-104.1 -50.28,-137.4 -33.56,-33.3 -81.3,-49.9 -143.09,-49.9 h -147.5 v 80.4 h 50.82" /></g><g
         transform="scale(1.65077)"
         id="g146"><path
           id="path148"
           style="fill:#f9a721;fill-opacity:1;fill-rule:nonzero;stroke:none"
           d="m 6911.79,15634.6 v 80.4 h 49.01 v 504.6 h -49.01 v 80.4 h 306.46 v -194.3 h -80.38 v 113.9 h -82.99 v -201.7 h 67.54 v -80.4 h -67.54 V 15715 h 82.99 v 124 h 80.38 v -204.4 h -306.46" /></g><g
         transform="scale(1.65077)"
         id="g150"><path
           id="path152"
           style="fill:#f9a721;fill-opacity:1;fill-rule:nonzero;stroke:none"
           d="m 7303.79,15634.6 v 80.4 h 48.1 v 504.6 h -48.1 v 80.4 h 192.94 v -80.4 h -50.76 V 15715 h 81.23 v 208.8 h 80.33 v -289.2 h -303.74" /></g><g
         transform="scale(1.65077)"
         id="g154"><path
           id="path156"
           style="fill:#f9a721;fill-opacity:1;fill-rule:nonzero;stroke:none"
           d="m 7685.13,15634.6 v 80.4 h 48.1 v 504.6 h -48.1 v 80.4 h 192.94 v -80.4 H 7827.3 V 15715 h 81.24 v 208.8 h 80.32 v -289.2 h -303.73" /></g><g
         transform="scale(1.55608)"
         id="g158"><path
           id="path160"
           style="fill:#c68069;fill-opacity:1;fill-rule:nonzero;stroke:none"
           d="M 7240.82,16014.1 H 4736.84 c -71.61,0 -129.66,58 -129.66,129.6 v 26.6 c 0,71.7 58.05,129.7 129.66,129.7 h 2503.98 c 71.59,0 129.68,-58 129.68,-129.7 v -26.6 c 0,-71.6 -58.09,-129.6 -129.68,-129.6" /></g><g
         transform="scale(1.16402)"
         id="g162"><path
           id="path164"
           style="fill:#a56b5e;fill-opacity:1;fill-rule:nonzero;stroke:none"
           d="m 16300,6012.5 h -191.5 v 5301 h 191.5 v -5301" /></g><g
         transform="scale(1.17828)"
         id="g166"><path
           id="path168"
           style="fill:#c68069;fill-opacity:1;fill-rule:nonzero;stroke:none"
           d="m 16300.3,10719.3 c 0,287.9 -233.3,521.2 -521.1,521.2 -287.9,0 -521.2,-233.3 -521.2,-521.2 0,-287.8 233.3,-521.2 521.2,-521.2 287.8,0 521.1,233.4 521.1,521.2" /></g><g
         transform="scale(1.3167)"
         id="g170"><path
           id="path172"
           style="fill:#fff4c4;fill-opacity:1;fill-rule:nonzero;stroke:none"
           d="m 12598.2,15017.6 c 0,708.3 -574.2,1282.4 -1282.4,1282.4 -708.2,0 -1282.3,-574.1 -1282.3,-1282.4 0,-708.2 574.1,-1282.3 1282.3,-1282.3 708.2,0 1282.4,574.1 1282.4,1282.3" /></g><g
         transform="scale(1.29448)"
         id="g174"><path
           id="path176"
           style="fill:#4d322c;fill-opacity:1;fill-rule:nonzero;stroke:none"
           d="m 11510.1,14250.8 c -565,0 -1024.5,459.7 -1024.5,1024.6 0,564.9 459.5,1024.6 1024.5,1024.6 564.9,0 1024.5,-459.7 1024.5,-1024.6 0,-564.9 -459.6,-1024.6 -1024.5,-1024.6" /></g><g
         transform="scale(1.23261)"
         id="g178"><path
           id="path180"
           style="fill:#fff4c4;fill-opacity:1;fill-rule:nonzero;stroke:none"
           d="m 12087.9,15784.4 c -142.2,0 -257.8,115.6 -257.8,257.9 0,142.1 115.6,257.7 257.8,257.7 142.1,0 257.8,-115.6 257.8,-257.7 0,-142.3 -115.7,-257.9 -257.8,-257.9" /></g><g
         transform="scale(1.50112)"
         id="g182"><path
           id="path184"
           style="fill:#c68069;fill-opacity:1;fill-rule:nonzero;stroke:none"
           d="M 11384.1,16300 H 9561.77 v -867 h 1822.33 v 867" /></g><g
         transform="scale(1.4714)"
         id="g186"><path
           id="path188"
           style="fill:#fff4c4;fill-opacity:1;fill-rule:nonzero;stroke:none"
           d="m 11345,16300 h -1321 v -555.3 h 1321 v 555.3" /></g><g
         transform="scale(1.52296)"
         id="g190"><path
           id="path192"
           style="fill:#fff4c4;fill-opacity:1;fill-rule:nonzero;stroke:none"
           d="m 10866.9,15755.8 c 0,300.6 -243.6,544.2 -544.1,544.2 -300.5,0 -544.13,-243.6 -544.13,-544.2 0,-300.5 243.63,-544.1 544.13,-544.1 300.5,0 544.1,243.6 544.1,544.1" /></g><g
         transform="scale(1.50356)"
         id="g194"><path
           id="path196"
           style="fill:#4d322c;fill-opacity:1;fill-rule:nonzero;stroke:none"
           d="m 10456,15618.3 c -187.9,0 -340.8,152.9 -340.8,340.9 0,187.9 152.9,340.8 340.8,340.8 188,0 340.9,-152.9 340.9,-340.8 0,-188 -152.9,-340.9 -340.9,-340.9" /></g><g
         transform="scale(1.1461)"
         id="g198"><path
           id="path200"
           style="fill:#f9a721;fill-opacity:1;fill-rule:nonzero;stroke:none"
           d="M 16300,2942.33 H 0 v -706.92 h 16300 v 706.92" /></g><g
         transform="scale(1.27152)"
         id="g202"><path
           id="path204"
           style="fill:#fff4c4;fill-opacity:1;fill-rule:nonzero;stroke:none"
           d="m 1891.23,16051.6 c 0,137.2 -111.21,248.4 -248.38,248.4 -137.17,0 -248.37,-111.2 -248.37,-248.4 0,-137.2 111.2,-248.3 248.37,-248.3 137.17,0 248.38,111.1 248.38,248.3" /></g><g
         transform="scale(1.27152)"
         id="g206"><path
           id="path208"
           style="fill:#fff4c4;fill-opacity:1;fill-rule:nonzero;stroke:none"
           d="m 9682.12,16051.6 c 0,137.2 111.2,248.4 248.36,248.4 137.12,0 248.32,-111.2 248.32,-248.4 0,-137.2 -111.2,-248.3 -248.32,-248.3 -137.16,0 -248.36,111.1 -248.36,248.3" /></g><g
         transform="scale(1.39476)"
         id="g210"><path
           id="path212"
           style="fill:#fff4c4;fill-opacity:1;fill-rule:nonzero;stroke:none"
           d="M 9145.49,12966.6 H 1405.1 V 16300 h 7740.39 v -3333.4" /></g><g
         transform="scale(1.36736)"
         id="g214"><path
           id="path216"
           style="fill:#4d322c;fill-opacity:1;fill-rule:nonzero;stroke:none"
           d="M 1760.08,13553.1 V 16300 H 9002.1 V 13553.1 H 1760.08" /></g><g
         transform="scale(1.36736)"
         id="g218"><path
           id="path220"
           style="fill:#ffffff;fill-opacity:1;fill-rule:nonzero;stroke:none"
           d="M 3883.1,13553.1 H 2286.78 V 16300 H 3883.1 v -2746.9" /></g><g
         transform="scale(1.1519)"
         id="g222"><path
           id="path224"
           style="fill:#bfbebe;fill-opacity:1;fill-rule:nonzero;stroke:none"
           d="M 4609.44,16088.3 H 2714.53 v 211.7 h 1894.91 v -211.7" /></g><g
         transform="scale(1.36736)"
         id="g226"><path
           id="path228"
           style="fill:#ffffff;fill-opacity:1;fill-rule:nonzero;stroke:none"
           d="M 6179.23,13553.1 H 4582.91 V 16300 h 1596.32 v -2746.9" /></g><g
         transform="scale(1.1519)"
         id="g230"><path
           id="path232"
           style="fill:#bfbebe;fill-opacity:1;fill-rule:nonzero;stroke:none"
           d="M 7335.06,16088.3 H 5440.14 v 211.7 h 1894.92 v -211.7" /></g><g
         transform="scale(1.36736)"
         id="g234"><path
           id="path236"
           style="fill:#ffffff;fill-opacity:1;fill-rule:nonzero;stroke:none"
           d="M 8475.39,13553.1 H 6879.04 V 16300 h 1596.35 v -2746.9" /></g><g
         transform="scale(1.1519)"
         id="g238"><path
           id="path240"
           style="fill:#bfbebe;fill-opacity:1;fill-rule:nonzero;stroke:none"
           d="M 10060.7,16088.3 H 8165.77 v 211.7 h 1894.93 v -211.7" /></g><g
         transform="scale(1.36736)"
         id="g242"><path
           id="path244"
           style="fill:#bfbebe;fill-opacity:1;fill-rule:nonzero;stroke:none"
           d="M 3883.1,16121.7 H 2286.78 V 16300 H 3883.1 v -178.3" /></g><g
         transform="scale(1.36736)"
         id="g246"><path
           id="path248"
           style="fill:#bfbebe;fill-opacity:1;fill-rule:nonzero;stroke:none"
           d="M 6179.23,16121.7 H 4582.91 v 178.3 h 1596.32 v -178.3" /></g><g
         transform="scale(1.36736)"
         id="g250"><path
           id="path252"
           style="fill:#bfbebe;fill-opacity:1;fill-rule:nonzero;stroke:none"
           d="M 8475.39,16121.7 H 6879.04 v 178.3 h 1596.35 v -178.3" /></g><g
         transform="scale(1.2158)"
         id="g254"><path
           id="path256"
           style="fill:#f5881f;fill-opacity:1;fill-rule:nonzero;stroke:none"
           d="m 8816.39,16217.8 c 0,-100.6 -81.59,-182.2 -182.18,-182.2 -100.6,0 -182.27,81.6 -182.27,182.2 0,29.6 7.16,57.5 19.66,82.2 h 325.21 c 12.51,-24.7 19.58,-52.6 19.58,-82.2" /></g><g
         transform="scale(1.2158)"
         id="g258"><path
           id="path260"
           style="fill:#f5881f;fill-opacity:1;fill-rule:nonzero;stroke:none"
           d="m 8796.81,16300 c 12.51,-24.7 19.58,-52.6 19.58,-82.2 0,-100.6 -81.59,-182.2 -182.18,-182.2 v 264.4 h 162.6 v 0" /></g><g
         transform="scale(1.29523)"
         id="g262"><path
           id="path264"
           style="fill:#f9a721;fill-opacity:1;fill-rule:nonzero;stroke:none"
           d="m 8705.32,15243.1 h -1201.2 l 1.76,59 c 0.5,16.6 7.65,163.6 106.61,221.7 83.06,48.8 90.86,190.3 86.88,240.7 l -0.19,4.7 v 89.8 c -0.19,14.8 0.08,206.7 124.45,333.3 70.1,71.5 164.21,107.7 279.64,107.7 0.54,0 1,0 1.46,0 0.47,0 1.01,0 1.47,0 115.43,0 209.54,-36.2 279.64,-107.7 124.38,-126.6 124.61,-318.5 124.46,-333.3 v -92.2 l -0.23,-2.4 c -3.94,-50.3 3.86,-191.8 86.93,-240.6 98.9,-58.1 106.08,-205.1 106.55,-221.7 l 1.77,-59" /></g><g
         transform="scale(1.2158)"
         id="g266"><path
           id="path268"
           style="fill:#f5881f;fill-opacity:1;fill-rule:nonzero;stroke:none"
           d="m 6234.07,16217.8 c 0,-100.6 -81.6,-182.2 -182.22,-182.2 -100.63,0 -182.23,81.6 -182.23,182.2 0,29.6 7.13,57.5 19.63,82.2 h 325.2 c 12.5,-24.7 19.62,-52.6 19.62,-82.2" /></g><g
         transform="scale(1.2158)"
         id="g270"><path
           id="path272"
           style="fill:#f5881f;fill-opacity:1;fill-rule:nonzero;stroke:none"
           d="m 6214.45,16300 c 12.5,-24.7 19.62,-52.6 19.62,-82.2 0,-100.6 -81.6,-182.2 -182.22,-182.2 v 264.4 h 162.6 v 0" /></g><g
         transform="scale(1.29523)"
         id="g274"><path
           id="path276"
           style="fill:#f9a721;fill-opacity:1;fill-rule:nonzero;stroke:none"
           d="M 6281.34,15243.1 H 5080.12 l 1.76,59 c 0.5,16.6 7.65,163.6 106.61,221.7 83.06,48.8 90.85,190.3 86.88,240.7 l -0.19,4.7 v 89.8 c -0.19,14.8 0.07,206.7 124.41,333.3 70.15,71.5 164.25,107.7 279.69,107.7 0.5,0 0.96,0 1.45,0 0.5,0 1,0 1.46,0 115.43,0 209.54,-36.2 279.67,-107.7 124.35,-126.6 124.62,-318.5 124.42,-333.3 v -92.2 l -0.18,-2.4 c -3.98,-50.3 3.82,-191.8 86.88,-240.6 98.96,-58.1 106.11,-205.1 106.61,-221.7 l 1.75,-59" /></g><g
         transform="scale(1.2158)"
         id="g278"><path
           id="path280"
           style="fill:#f5881f;fill-opacity:1;fill-rule:nonzero;stroke:none"
           d="m 3651.72,16217.8 c 0,-100.6 -81.61,-182.2 -182.23,-182.2 -100.62,0 -182.22,81.6 -182.22,182.2 0,29.6 7.12,57.5 19.62,82.2 h 325.2 c 12.5,-24.7 19.63,-52.6 19.63,-82.2" /></g><g
         transform="scale(1.2158)"
         id="g282"><path
           id="path284"
           style="fill:#f5881f;fill-opacity:1;fill-rule:nonzero;stroke:none"
           d="m 3632.09,16300 c 12.5,-24.7 19.63,-52.6 19.63,-82.2 0,-100.6 -81.61,-182.2 -182.23,-182.2 v 264.4 h 162.6 v 0" /></g><g
         transform="scale(1.29523)"
         id="g286"><path
           id="path288"
           style="fill:#f9a721;fill-opacity:1;fill-rule:nonzero;stroke:none"
           d="M 3857.34,15243.1 H 2656.12 l 1.76,59 c 0.5,16.6 7.64,163.6 106.61,221.7 83.06,48.8 90.86,190.3 86.88,240.7 l -0.19,4.7 v 89.8 c -0.19,14.8 0.07,206.7 124.41,333.3 70.15,71.5 164.25,107.7 279.69,107.7 0.5,0 0.96,0 1.45,0 0.5,0 1,0 1.46,0 115.43,0 209.54,-36.2 279.68,-107.7 124.34,-126.6 124.6,-318.5 124.42,-333.3 v -92.2 l -0.19,-2.4 c -3.98,-50.3 3.82,-191.8 86.88,-240.6 98.96,-58.1 106.11,-205.1 106.6,-221.7 l 1.76,-59" /></g><g
         transform="scale(1.17828)"
         id="g290"><path
           id="path292"
           style="fill:#de8f76;fill-opacity:1;fill-rule:nonzero;stroke:none"
           d="m 15779.2,11240.5 c -143.5,0 -273.3,-57.9 -367.5,-151.6 -12.5,-44.7 -19.3,-91.7 -19.3,-140.2 0,-287.9 233.4,-521.3 521.2,-521.3 143.4,0 273.3,57.9 367.5,151.6 12.5,44.7 19.2,91.7 19.2,140.3 0,287.9 -233.3,521.2 -521.1,521.2" /></g></g></g></svg>